<svg xmlns="http://www.w3.org/2000/svg" width="512" height="512"><path d="M425.813 155.307C417.28 74.24 352.427 9.387 272.213.853 267.093.853 261.973 0 256 0c-5.973 0-11.093.853-16.213.853-80.214 9.387-145.067 74.24-153.6 154.454-5.973 54.613 13.653 108.373 52.907 145.92 21.333 20.48 34.987 44.373 40.107 67.413v100.693c0 5.12 3.413 8.533 8.533 8.533h12.8l15.36 20.48C222.72 506.88 232.107 512 243.2 512h25.6c11.093 0 21.333-5.12 27.307-13.653l15.36-20.48h12.8c5.12 0 8.533-3.413 8.533-8.533V368.64c4.267-23.04 18.773-46.933 40.107-67.413 39.253-38.4 58.88-91.307 52.906-145.92zm-203.946 58.026H204.8c-9.387 0-17.067-7.68-17.067-17.067s7.68-17.067 17.067-17.067 17.067 7.68 17.067 17.067v17.067zm51.2 145.067h-34.133v-128h34.133v128zm42.666 17.067v17.067h-25.6c-5.12 0-8.533 3.413-8.533 8.533 0 5.12 3.413 8.533 8.533 8.533h25.6v17.067h-51.2c-5.12 0-8.533 3.413-8.533 8.533s3.413 8.533 8.533 8.533h51.2V460.8H196.267v-17.067h25.6c5.12 0 8.533-3.413 8.533-8.533s-3.413-8.533-8.533-8.533h-25.6V409.6h51.2c5.12 0 8.533-3.413 8.533-8.533 0-5.12-3.413-8.533-8.533-8.533h-51.2v-17.067h119.466zm-33.28 112.64c-3.413 4.267-8.533 6.827-13.653 6.827h-25.6c-5.12 0-10.24-2.56-13.653-6.827l-7.68-10.24h68.267l-7.681 10.24zm78.507-199.68c-21.333 21.333-36.693 45.227-43.52 69.973h-27.307v-128H307.2c18.773 0 34.133-15.36 34.133-34.133 0-18.773-15.36-34.133-34.133-34.133-18.773 0-34.133 15.36-34.133 34.133v17.067h-34.133v-17.067c0-18.773-15.36-34.133-34.133-34.133s-34.133 15.36-34.133 34.133c0 18.773 15.36 34.133 34.133 34.133h17.067v128H194.56c-6.827-24.747-22.187-48.64-43.52-69.973-35.84-34.133-52.907-81.92-47.787-131.413 8.533-72.533 66.56-130.56 139.093-139.093 4.267 0 8.533-.853 13.653-.853 5.12 0 9.387.853 13.653.853 72.533 8.533 131.413 66.56 139.093 139.093 5.122 49.493-11.945 97.279-47.785 131.413zm-70.827-75.094v-17.067c0-9.387 7.68-17.067 17.067-17.067s17.067 7.68 17.067 17.067-7.68 17.067-17.067 17.067h-17.067z" data-original="#000000" class="active-path" data-old_color="#000000" fill="#FFF"/></svg>