<svg xmlns="http://www.w3.org/2000/svg" viewBox="0 0 463 463" width="512" height="512"><path d="M423.5 40h-.5v-8.5C423 14.131 408.869 0 391.5 0h-288C86.131 0 72 14.131 72 31.5V40h-.5C58.542 40 48 50.542 48 63.5V72h-.5C30.131 72 16 86.131 16 103.5v64c0 17.369 14.131 31.5 31.5 31.5h176c9.098 0 16.5 7.402 16.5 16.5V232h-8.5c-12.958 0-23.5 10.542-23.5 23.5v168c0 21.78 17.72 39.5 39.5 39.5s39.5-17.72 39.5-39.5v-168c0-12.958-10.542-23.5-23.5-23.5H255v-16.5c0-17.369-14.131-31.5-31.5-31.5h-176c-9.098 0-16.5-7.402-16.5-16.5v-64C31 94.402 38.402 87 47.5 87h.5v8.5c0 12.958 10.542 23.5 23.5 23.5h.5v8.5c0 17.369 14.131 31.5 31.5 31.5h288c17.369 0 31.5-14.131 31.5-31.5V119h.5c12.958 0 23.5-10.542 23.5-23.5v-32c0-12.958-10.542-23.5-23.5-23.5zm-176 408c-13.509 0-24.5-10.99-24.5-24.5V279h49v144.5c0 13.51-10.991 24.5-24.5 24.5zM272 255.5v8.5h-49v-8.5c0-4.687 3.813-8.5 8.5-8.5h32c4.687 0 8.5 3.813 8.5 8.5zM71.5 104c-4.687 0-8.5-3.813-8.5-8.5v-32c0-4.687 3.813-8.5 8.5-8.5h.5v49h-.5zM408 127.5c0 9.098-7.402 16.5-16.5 16.5h-288c-9.098 0-16.5-7.402-16.5-16.5v-96c0-9.098 7.402-16.5 16.5-16.5h288c9.098 0 16.5 7.402 16.5 16.5v96zm24-32c0 4.687-3.813 8.5-8.5 8.5h-.5V55h.5c4.687 0 8.5 3.813 8.5 8.5v32z" data-original="#000000" class="active-path" data-old_color="#000000" fill="#FFF"/><path d="M247.5 416a7.51 7.51 0 00-7.5 7.5c0 1.97.8 3.91 2.2 5.3 1.39 1.4 3.33 2.2 5.3 2.2 1.97 0 3.91-.8 5.3-2.2 1.4-1.4 2.2-3.33 2.2-5.3 0-1.971-.8-3.91-2.2-5.3a7.528 7.528 0 00-5.3-2.2z" data-original="#000000" class="active-path" data-old_color="#000000" fill="#FFF"/></svg>